<svg xmlns="http://www.w3.org/2000/svg" viewBox="0 0 512 512" fill="none">
  <rect width="512" height="512" rx="112" fill="#2563eb"/>
  <path
    d="M380 186V142a16 16 0 0 0-16-16H128a64 64 0 0 0 0 128h252a16 16 0 0 1 16 16v96h-48a64 64 0 0 0 0 128h48a16 16 0 0 0 16-16v-32a16 16 0 0 0-16-16"
    stroke="white"
    stroke-width="28"
    stroke-linecap="round"
    stroke-linejoin="round"
  />
  <path
    d="M64 158v254a64 64 0 0 0 64 64h252a16 16 0 0 0 16-16v-96"
    stroke="white"
    stroke-width="28"
    stroke-linecap="round"
    stroke-linejoin="round"
  />
</svg>
